# xmcd
#
# Track frame offsets:
# 150
# 13487
# 30321
# 47541
# 64625
# 79417
# 95869
# 116624
# 137517
# 151949
# 165903
# 179961
# 195964
# 214956
#
# Disc length: 3086 seconds
#
#
# Revision: 0
# Processed by: cddbd v1.5.2PL0 Copyright (c) Steve Scherf et al.
# Submitted via: Nero 7, 11, 10, 0 
#
DISCID=bc0c0c0e
DTITLE=Ray Reed - Where The Trinity Runs Free
DYEAR=2008
DGENRE=Blues
TTITLE0=Lady Pearl's Cut You Loose
TTITLE1=Never Make Your Move Too Soon
TTITLE2=Woke Up This Morning
TTITLE3=Look'n For The Blues
TTITLE4=Lucy Mae Blues
TTITLE5=I Love You Baby
TTITLE6=Two Trains Running
TTITLE7=Have You Ever Loved A Woman
TTITLE8=Bad Sad
TTITLE9=Boogie Chillen
TTITLE10=Wonder Why
TTITLE11=Trust Me
TTITLE12=Maypearl Rose
TTITLE13=Key To The Highway
EXTD=
EXTT0=Lady Pearl's Cut You Loose
EXTT1=Never Make Your Move Too Soon
EXTT2=Woke Up This Morning
EXTT3=Look'n For The Blues
EXTT4=Lucy Mae Blues
EXTT5=I Love You Baby
EXTT6=Two Trains Running
EXTT7=Have You Ever Loved A Woman
EXTT8=Bad Sad
EXTT9=Boogie Chillen
EXTT10=Wonder Why
EXTT11=Trust Me
EXTT12=Maypearl Rose
EXTT13=Key To The Highway
PLAYORDER=
